<mxfile host="app.diagrams.net" modified="2023-10-26T12:48:19.849Z" agent="Mozilla/5.0 (Windows NT 10.0; Win64; x64) AppleWebKit/537.36 (KHTML, like Gecko) Chrome/118.0.0.0 Safari/537.36" etag="TqyvzCMEES4_5QJJNeQO" version="22.0.8" type="github">
  <diagram name="Page-1" id="wFv23azrO5TmY8dKMRDV">
    <mxGraphModel dx="880" dy="478" grid="1" gridSize="10" guides="1" tooltips="1" connect="1" arrows="1" fold="1" page="1" pageScale="1" pageWidth="850" pageHeight="1100" math="0" shadow="0">
      <root>
        <mxCell id="0" />
        <mxCell id="1" parent="0" />
        <mxCell id="Zo6Wz0A7gYt2dgUF0l2a-8" style="edgeStyle=orthogonalEdgeStyle;rounded=0;orthogonalLoop=1;jettySize=auto;html=1;startArrow=classic;startFill=1;" edge="1" parent="1" source="Zo6Wz0A7gYt2dgUF0l2a-1" target="Zo6Wz0A7gYt2dgUF0l2a-3">
          <mxGeometry relative="1" as="geometry">
            <Array as="points">
              <mxPoint x="340" y="204" />
              <mxPoint x="340" y="204" />
            </Array>
          </mxGeometry>
        </mxCell>
        <mxCell id="Zo6Wz0A7gYt2dgUF0l2a-9" value="Request:phoneNumber,password&lt;br&gt;Response:Token" style="edgeLabel;html=1;align=center;verticalAlign=middle;resizable=0;points=[];" vertex="1" connectable="0" parent="Zo6Wz0A7gYt2dgUF0l2a-8">
          <mxGeometry x="0.0796" relative="1" as="geometry">
            <mxPoint y="1" as="offset" />
          </mxGeometry>
        </mxCell>
        <mxCell id="Zo6Wz0A7gYt2dgUF0l2a-1" value="Mobile client" style="sketch=0;outlineConnect=0;fontColor=#232F3E;gradientColor=none;strokeColor=#232F3E;fillColor=#ffffff;dashed=0;verticalLabelPosition=bottom;verticalAlign=top;align=center;html=1;fontSize=12;fontStyle=0;aspect=fixed;shape=mxgraph.aws4.resourceIcon;resIcon=mxgraph.aws4.mobile_client;" vertex="1" parent="1">
          <mxGeometry x="90" y="160" width="87" height="87" as="geometry" />
        </mxCell>
        <mxCell id="Zo6Wz0A7gYt2dgUF0l2a-2" value="" style="image;aspect=fixed;perimeter=ellipsePerimeter;html=1;align=center;shadow=0;dashed=0;spacingTop=3;image=img/lib/active_directory/database_server.svg;" vertex="1" parent="1">
          <mxGeometry x="730" y="164.44000000000005" width="71" height="86.58" as="geometry" />
        </mxCell>
        <mxCell id="Zo6Wz0A7gYt2dgUF0l2a-12" style="edgeStyle=orthogonalEdgeStyle;rounded=0;orthogonalLoop=1;jettySize=auto;html=1;entryX=0;entryY=0.5;entryDx=0;entryDy=0;startArrow=classic;startFill=1;" edge="1" parent="1" source="Zo6Wz0A7gYt2dgUF0l2a-3" target="Zo6Wz0A7gYt2dgUF0l2a-2">
          <mxGeometry relative="1" as="geometry" />
        </mxCell>
        <mxCell id="Zo6Wz0A7gYt2dgUF0l2a-13" value="Request:phoneNumber,password" style="edgeLabel;html=1;align=center;verticalAlign=middle;resizable=0;points=[];" vertex="1" connectable="0" parent="Zo6Wz0A7gYt2dgUF0l2a-12">
          <mxGeometry x="0.1028" relative="1" as="geometry">
            <mxPoint as="offset" />
          </mxGeometry>
        </mxCell>
        <mxCell id="Zo6Wz0A7gYt2dgUF0l2a-3" value="" style="image;points=[];aspect=fixed;html=1;align=center;shadow=0;dashed=0;image=img/lib/allied_telesis/computer_and_terminals/Server_Desktop.svg;" vertex="1" parent="1">
          <mxGeometry x="410" y="165.44000000000005" width="66.3" height="84.04" as="geometry" />
        </mxCell>
        <mxCell id="Zo6Wz0A7gYt2dgUF0l2a-4" value="Server&lt;br&gt;" style="text;html=1;strokeColor=none;fillColor=none;align=center;verticalAlign=middle;whiteSpace=wrap;rounded=0;" vertex="1" parent="1">
          <mxGeometry x="410" y="252.01999999999998" width="60" height="30" as="geometry" />
        </mxCell>
        <mxCell id="Zo6Wz0A7gYt2dgUF0l2a-5" value="Database&lt;br&gt;" style="text;html=1;strokeColor=none;fillColor=none;align=center;verticalAlign=middle;whiteSpace=wrap;rounded=0;" vertex="1" parent="1">
          <mxGeometry x="730" y="252.01999999999998" width="60" height="30" as="geometry" />
        </mxCell>
      </root>
    </mxGraphModel>
  </diagram>
</mxfile>
